<?xml version="1.0" encoding="UTF-8"?><svg id="Layer_1" xmlns="http://www.w3.org/2000/svg" viewBox="0 0 718.46 230.34"><defs><style>.cls-1{font-family:Inter-Italic, Inter;font-size:96px;font-style:italic;font-variation-settings:'opsz' 14, 'wght' 400;}.cls-1,.cls-2{fill:#2720ff;}.cls-3{fill:#587dff;}.cls-4{fill:#67dcff;}</style></defs><path class="cls-3" d="m115.23,230.34c-19.33,0-35-15.67-35-35v-45.23h-45.23c-19.33,0-35-15.67-35-35s15.67-35,35-35h80.23c19.33,0,35,15.67,35,35v80.23c0,19.33-15.67,35-35,35Z"/><path class="cls-4" d="m115.29,0c19.33,0,35,15.67,35,35v45.23s45.23,0,45.23,0c19.33,0,35,15.67,35,35s-15.67,35-35,35h-80.23c-19.33,0-35-15.67-35-35V35C80.29,15.67,95.96,0,115.29,0Z"/><path class="cls-2" d="m115.29,150.23h34.88v-35.23c0-19.33-15.67-35-35-35h-34.88v35.23c0,19.33,15.67,35,35,35Z"/><text class="cls-1" transform="translate(235.4 149.96)"><tspan x="0" y="0">Medicator</tspan></text></svg>